<svg height="551" width="1087" xmlns="http://www.w3.org/2000/svg">
<style>
path.link{fill:none;stroke:#7f8c8d;stroke-width:2px}
text{font-family:sans-serif;pointer-events:none}
marker{fill:#d8dadc}
text .faded{fill:#333}
.node .outline{-webkit-transform:scale(1);-moz-transform:scale(1);-o-transform:scale(1);-ms-transform:scale(1);transform:scale(1);-webkit-transition:all .15s;-moz-transition:all .15s;-o-transition:all .15s;-ms-transition:all .15s;transition:all .15s;-webkit-transition-timing-function:cubic-bezier(.694,.0482,.335,1);-moz-transition-timing-function:cubic-bezier(.694,.0482,.335,1);-o-transition-timing-function:cubic-bezier(.694,.0482,.335,1);-ms-transition-timing-function:cubic-bezier(.694,.0482,.335,1);transition-timing-function:cubic-bezier(.694,.0482,.335,1)}
.node:hover .outline{-webkit-transform:scale(1.4);-moz-transform:scale(1.4);-o-transform:scale(1.4);-ms-transform:scale(1.4);transform:scale(1.4)}
.relationship:hover{stroke:#3498db}
.outline,.overlay{cursor:pointer}
g.node text[stroke="#DFE1E3"] {text-shadow: -1px -1px 2px #DFE1E3, -1px 1px 2px #DFE1E3, -1px 0 2px #DFE1E3, 1px -1px 2px #DFE1E3, 1px 1px 2px #DFE1E3, 1px 0 2px #DFE1E3, 0 -1px 2px #DFE1E3, 0 1px 2px #DFE1E3}
g.node text[stroke="#F25A29"] {text-shadow: -1px -1px 2px #F25A29, -1px 1px 2px #F25A29, -1px 0 2px #F25A29, 1px -1px 2px #F25A29, 1px 1px 2px #F25A29, 1px 0 2px #F25A29, 0 -1px 2px #F25A29, 0 1px 2px #F25A29}
g.node text[stroke="#AD62CE"] {text-shadow: -1px -1px 2px #AD62CE, -1px 1px 2px #AD62CE, -1px 0 2px #AD62CE, 1px -1px 2px #AD62CE, 1px 1px 2px #AD62CE, 1px 0 2px #AD62CE, 0 -1px 2px #AD62CE, 0 1px 2px #AD62CE}
g.node text[stroke="#30B6AF"] {text-shadow: -1px -1px 2px #30B6AF, -1px 1px 2px #30B6AF, -1px 0 2px #30B6AF, 1px -1px 2px #30B6AF, 1px 1px 2px #30B6AF, 1px 0 2px #30B6AF, 0 -1px 2px #30B6AF, 0 1px 2px #30B6AF}
g.node text[stroke="#FCC940"] {text-shadow: -1px -1px 2px #FCC940, -1px 1px 2px #FCC940, -1px 0 2px #FCC940, 1px -1px 2px #FCC940, 1px 1px 2px #FCC940, 1px 0 2px #FCC940, 0 -1px 2px #FCC940, 0 1px 2px #FCC940}
g.node text[stroke="#4356C0"] {text-shadow: -1px -1px 2px #4356C0, -1px 1px 2px #4356C0, -1px 0 2px #4356C0, 1px -1px 2px #4356C0, 1px 1px 2px #4356C0, 1px 0 2px #4356C0, 0 -1px 2px #4356C0, 0 1px 2px #4356C0}
g.node text[stroke="#FF6C7C"] {text-shadow: -1px -1px 2px #FF6C7C, -1px 1px 2px #FF6C7C, -1px 0 2px #FF6C7C, 1px -1px 2px #FF6C7C, 1px 1px 2px #FF6C7C, 1px 0 2px #FF6C7C, 0 -1px 2px #FF6C7C, 0 1px 2px #FF6C7C}
g.node text[stroke="#a2cf81"] {text-shadow: -1px -1px 2px #a2cf81, -1px 1px 2px #a2cf81, -1px 0 2px #a2cf81, 1px -1px 2px #a2cf81, 1px 1px 2px #a2cf81, 1px 0 2px #a2cf81, 0 -1px 2px #a2cf81, 0 1px 2px #a2cf81}
g.node text[stroke="#f79235"] {text-shadow: -1px -1px 2px #f79235, -1px 1px 2px #f79235, -1px 0 2px #f79235, 1px -1px 2px #f79235, 1px 1px 2px #f79235, 1px 0 2px #f79235, 0 -1px 2px #f79235, 0 1px 2px #f79235}
g.node text[stroke="#785cc7"] {text-shadow: -1px -1px 2px #785cc7, -1px 1px 2px #785cc7, -1px 0 2px #785cc7, 1px -1px 2px #785cc7, 1px 1px 2px #785cc7, 1px 0 2px #785cc7, 0 -1px 2px #785cc7, 0 1px 2px #785cc7}
g.node text[stroke="#d05e7c"] {text-shadow: -1px -1px 2px #d05e7c, -1px 1px 2px #d05e7c, -1px 0 2px #d05e7c, 1px -1px 2px #d05e7c, 1px 1px 2px #d05e7c, 1px 0 2px #d05e7c, 0 -1px 2px #d05e7c, 0 1px 2px #d05e7c}
g.node text[stroke="#3986b7"] {text-shadow: -1px -1px 2px #3986b7, -1px 1px 2px #3986b7, -1px 0 2px #3986b7, 1px -1px 2px #3986b7, 1px 1px 2px #3986b7, 1px 0 2px #3986b7, 0 -1px 2px #3986b7, 0 1px 2px #3986b7}

</style>
<g class="layer relationships"><g class="relationship"><path fill="#4356C0" stroke="none" d="M 0 1.5 L 18.649610392752287 1.5 L 18.649610392752287 -1.5 L 0 -1.5 Z M 42.64961039275229 1.5 L 61.29922078550457 1.5 L 61.29922078550457 4.5 L 70.29922078550457 0 L 61.29922078550457 -4.5 L 61.29922078550457 -1.5 L 42.64961039275229 -1.5 Z" transform="translate(586.8106509198396 59.28550533557582) rotate(123.66817945120341)"/><text text-anchor="middle" font-size="9px" fill="#000000" x="569.8190495155371" y="88.29401565948169" transform="rotate(303.6681794512034 569.8190495155371 84.79401565948169)">HAS</text><rect class="overlay" fill="yellow" x="0" y="-10" height="20" opacity="0" width="70.29922078550457" transform="translate(586.8106509198396 59.28550533557582) rotate(123.66817945120341)"/></g><g class="relationship"><path fill="#4356C0" stroke="none" d="M 0 1.5 L 22.50820641161672 1.5 L 22.50820641161672 -1.5 L 0 -1.5 Z M 46.50820641161672 1.5 L 69.01641282323344 1.5 L 69.01641282323344 4.5 L 78.01641282323344 0 L 69.01641282323344 -4.5 L 69.01641282323344 -1.5 L 46.50820641161672 -1.5 Z" transform="translate(610.5302368175633 58.146199882931384) rotate(50.83195531423547)"/><text text-anchor="middle" font-size="9px" fill="#000000" x="632.3255163978935" y="88.40030419912907" transform="rotate(50.83195531423547 632.3255163978935 84.90030419912907)">HAS</text><rect class="overlay" fill="yellow" x="0" y="-10" height="20" opacity="0" width="78.01641282323344" transform="translate(610.5302368175633 58.146199882931384) rotate(50.83195531423547)"/></g><g class="relationship"><path fill="#4356C0" stroke="none" d="M 0 1.5 L 16.222731309567763 1.5 L 16.222731309567763 -1.5 L 0 -1.5 Z M 78.22273130956776 1.5 L 94.44546261913553 1.5 L 94.44546261913553 4.5 L 103.44546261913553 0 L 94.44546261913553 -4.5 L 94.44546261913553 -1.5 L 78.22273130956776 -1.5 Z" transform="translate(517.4779098506087 129.09279294264672) rotate(-164.49831266291136)"/><text text-anchor="middle" font-size="9px" fill="#000000" x="471.9730195424833" y="119.97172680776329" transform="rotate(15.50168733708864 471.9730195424833 116.47172680776329)">IS_MADE_OF</text><rect class="overlay" fill="yellow" x="0" y="-10" height="20" opacity="0" width="103.44546261913553" transform="translate(517.4779098506087 129.09279294264672) rotate(-164.49831266291136)"/></g><g class="relationship"><path fill="#4356C0" stroke="none" d="M 0 1.5 L 35.54653428078544 1.5 L 35.54653428078544 -1.5 L 0 -1.5 Z M 97.54653428078544 1.5 L 133.09306856157087 1.5 L 133.09306856157087 4.5 L 142.09306856157087 0 L 133.09306856157087 -4.5 L 133.09306856157087 -1.5 L 97.54653428078544 -1.5 Z" transform="translate(692.2811796063534 131.64545697653153) rotate(-7.159275732661469)"/><text text-anchor="middle" font-size="9px" fill="#000000" x="758.3088861033249" y="126.85189323507892" transform="rotate(-7.159275732661469 758.3088861033249 123.35189323507892)">IS_MADE_OF</text><rect class="overlay" fill="yellow" x="0" y="-10" height="20" opacity="0" width="142.09306856157087" transform="translate(692.2811796063534 131.64545697653153) rotate(-7.159275732661469)"/></g><g class="relationship"><path fill="#4356C0" stroke="none" d="M 0 1.5 L 6.584115507531415 1.5 L 6.584115507531415 -1.5 L 0 -1.5 Z M 66.58411550753141 1.5 L 73.16823101506283 1.5 L 73.16823101506283 4.5 L 82.16823101506283 0 L 73.16823101506283 -4.5 L 73.16823101506283 -1.5 L 66.58411550753141 -1.5 Z" transform="translate(677.4822715884594 153.49121723026843) rotate(75.38882279399061)"/><text text-anchor="middle" font-size="9px" fill="#000000" x="686.7109122721641" y="192.3922016600759" transform="rotate(75.38882279399061 686.7109122721641 188.8922016600759)">GENERATES</text><rect class="overlay" fill="yellow" x="0" y="-10" height="20" opacity="0" width="82.16823101506283" transform="translate(677.4822715884594 153.49121723026843) rotate(75.38882279399061)"/></g><g class="relationship"><path fill="#4356C0" stroke="none" d="M 0 1.5 L 34.654981485159894 1.5 L 34.654981485159894 -1.5 L 0 -1.5 Z M 66.6549814851599 1.5 L 101.30996297031979 1.5 L 101.30996297031979 4.5 L 110.30996297031979 0 L 101.30996297031979 -4.5 L 101.30996297031979 -1.5 L 66.6549814851599 -1.5 Z" transform="translate(517.7058496427634 140.54603830672693) rotate(162.21803946515755)"/><text text-anchor="middle" font-size="9px" fill="#000000" x="469.47087985342193" y="159.51584239996654" transform="rotate(342.2180394651575 469.47087985342193 156.01584239996654)">LINKS</text><rect class="overlay" fill="yellow" x="0" y="-10" height="20" opacity="0" width="110.30996297031979" transform="translate(517.7058496427634 140.54603830672693) rotate(162.21803946515755)"/></g><g class="relationship"><path fill="#4356C0" stroke="none" d="M 0 1.5 L 46.358843392993776 1.5 L 46.358843392993776 -1.5 L 0 -1.5 Z M 78.35884339299378 1.5 L 124.71768678598755 1.5 L 124.71768678598755 4.5 L 133.71768678598755 0 L 124.71768678598755 -4.5 L 124.71768678598755 -1.5 L 78.35884339299378 -1.5 Z" transform="translate(691.176188126736 141.12707414859756) rotate(20.45385107816271)"/><text text-anchor="middle" font-size="9px" fill="#000000" x="749.603553393627" y="166.41854810703418" transform="rotate(20.45385107816271 749.603553393627 162.91854810703418)">LINKS</text><rect class="overlay" fill="yellow" x="0" y="-10" height="20" opacity="0" width="133.71768678598755" transform="translate(691.176188126736 141.12707414859756) rotate(20.45385107816271)"/></g><g class="relationship"><path fill="#4356C0" stroke="none" d="M 0 1.5 L 69.97969704457915 1.5 L 69.97969704457915 -1.5 L 0 -1.5 Z M 93.97969704457915 1.5 L 163.9593940891583 1.5 L 163.9593940891583 4.5 L 172.9593940891583 0 L 163.9593940891583 -4.5 L 163.9593940891583 -1.5 L 93.97969704457915 -1.5 Z" transform="translate(472.3188048610088 478.82641162455434) rotate(-145.6371532527891)"/><text text-anchor="middle" font-size="9px" fill="#000000" x="404.6462311301897" y="436.0544601618396" transform="rotate(34.36284674721091 404.6462311301897 432.5544601618396)">HAS</text><rect class="overlay" fill="yellow" x="0" y="-10" height="20" opacity="0" width="172.9593940891583" transform="translate(472.3188048610088 478.82641162455434) rotate(-145.6371532527891)"/></g><g class="relationship"><path fill="#4356C0" stroke="none" d="M 0 1.5 L 27.159808313485392 1.5 L 27.159808313485392 -1.5 L 0 -1.5 Z M 51.15980831348539 1.5 L 78.31961662697078 1.5 L 78.31961662697078 4.5 L 87.31961662697078 0 L 78.31961662697078 -4.5 L 78.31961662697078 -1.5 L 51.15980831348539 -1.5 Z" transform="translate(483.17727168939604 470.93003434719014) rotate(-106.41283414700453)"/><text text-anchor="middle" font-size="9px" fill="#000000" x="472.112419800978" y="436.86596055538354" transform="rotate(73.58716585299547 472.112419800978 433.36596055538354)">HAS</text><rect class="overlay" fill="yellow" x="0" y="-10" height="20" opacity="0" width="87.31961662697078" transform="translate(483.17727168939604 470.93003434719014) rotate(-106.41283414700453)"/></g><g class="relationship"><path fill="#4356C0" stroke="none" d="M 0 1.5 L 80.49071872188885 1.5 L 80.49071872188885 -1.5 L 0 -1.5 Z M 104.49071872188885 1.5 L 184.9814374437777 1.5 L 184.9814374437777 4.5 L 193.9814374437777 0 L 184.9814374437777 -4.5 L 184.9814374437777 -1.5 L 104.49071872188885 -1.5 Z" transform="translate(505.6871227554914 479.35477839418394) rotate(-32.54851158641663)"/><text text-anchor="middle" font-size="9px" fill="#000000" x="583.6508994892079" y="433.0935227116073" transform="rotate(-32.54851158641663 583.6508994892079 429.5935227116073)">HAS</text><rect class="overlay" fill="yellow" x="0" y="-10" height="20" opacity="0" width="193.9814374437777" transform="translate(505.6871227554914 479.35477839418394) rotate(-32.54851158641663)"/></g><g class="relationship"><path fill="#4356C0" stroke="none" d="M 0 1.5 L 4.485110790568278 1.5 L 4.485110790568278 -1.5 L 0 -1.5 Z M 66.48511079056829 1.5 L 70.97022158113656 1.5 L 70.97022158113656 4.5 L 79.97022158113656 0 L 70.97022158113656 -4.5 L 70.97022158113656 -1.5 L 66.48511079056829 -1.5 Z" transform="translate(293.93960188003575 363.9662596182709) rotate(-162.6993153902744)"/><text text-anchor="middle" font-size="9px" fill="#000000" x="260.05993522076767" y="356.913474446773" transform="rotate(17.300684609725607 260.05993522076767 353.413474446773)">IS_MADE_OF</text><rect class="overlay" fill="yellow" x="0" y="-10" height="20" opacity="0" width="79.97022158113656" transform="translate(293.93960188003575 363.9662596182709) rotate(-162.6993153902744)"/></g><g class="relationship"><path fill="#4356C0" stroke="none" d="M 0 1.5 L 2.700410598091132 1.5 L 2.700410598091132 -1.5 L 0 -1.5 Z M 64.70041059809114 1.5 L 67.40082119618226 1.5 L 67.40082119618226 4.5 L 76.40082119618226 0 L 67.40082119618226 -4.5 L 67.40082119618226 -1.5 L 64.70041059809114 -1.5 Z" transform="translate(472.3080624344564 372.62230584914454) rotate(13.410989394431018)"/><text text-anchor="middle" font-size="9px" fill="#000000" x="505.0895103804192" y="383.9385930141651" transform="rotate(13.410989394431018 505.0895103804192 380.4385930141651)">IS_MADE_OF</text><rect class="overlay" fill="yellow" x="0" y="-10" height="20" opacity="0" width="76.40082119618226" transform="translate(472.3080624344564 372.62230584914454) rotate(13.410989394431018)"/></g><g class="relationship"><path fill="#4356C0" stroke="none" d="M 0 1.5 L 2.8747164597700277 1.5 L 2.8747164597700277 -1.5 L 0 -1.5 Z M 50.87471645977003 1.5 L 53.749432919540055 1.5 L 53.749432919540055 4.5 L 62.749432919540055 0 L 53.749432919540055 -4.5 L 53.749432919540055 -1.5 L 50.87471645977003 -1.5 Z" transform="translate(706.0589058384481 364.03796763720464) rotate(-0.5497837033616)"/><text text-anchor="middle" font-size="9px" fill="#000000" x="732.9323850722611" y="367.28009429066225" transform="rotate(-0.5497837033616 732.9323850722611 363.78009429066225)">IS_MAD…</text><rect class="overlay" fill="yellow" x="0" y="-10" height="20" opacity="0" width="62.749432919540055" transform="translate(706.0589058384481 364.03796763720464) rotate(-0.5497837033616)"/></g><g class="relationship"><path fill="#4356C0" stroke="none" d="M 0 1.5 L 68.62448174228646 1.5 L 68.62448174228646 -1.5 L 0 -1.5 Z M 128.62448174228646 1.5 L 197.24896348457293 1.5 L 197.24896348457293 4.5 L 206.24896348457293 0 L 197.24896348457293 -4.5 L 197.24896348457293 -1.5 L 128.62448174228646 -1.5 Z" transform="translate(330.32696216129705 359.8651401528528) rotate(-30.16171028947219)"/><text text-anchor="middle" font-size="9px" fill="#000000" x="415.59875105125036" y="313.81203310151005" transform="rotate(-30.16171028947219 415.59875105125036 310.31203310151005)">GENERATES</text><rect class="overlay" fill="yellow" x="0" y="-10" height="20" opacity="0" width="206.24896348457293" transform="translate(330.32696216129705 359.8651401528528) rotate(-30.16171028947219)"/></g><g class="relationship"><path fill="#4356C0" stroke="none" d="M 0 1.5 L 16.521854564189212 1.5 L 16.521854564189212 -1.5 L 0 -1.5 Z M 76.52185456418921 1.5 L 93.04370912837842 1.5 L 93.04370912837842 4.5 L 102.04370912837842 0 L 93.04370912837842 -4.5 L 93.04370912837842 -1.5 L 76.52185456418921 -1.5 Z" transform="translate(463.1447478483576 350.8345969508012) rotate(-59.03157104785928)"/><text text-anchor="middle" font-size="9px" fill="#000000" x="487.0832976470662" y="314.4443878058704" transform="rotate(-59.03157104785928 487.0832976470662 310.9443878058704)">GENERATES</text><rect class="overlay" fill="yellow" x="0" y="-10" height="20" opacity="0" width="102.04370912837842" transform="translate(463.1447478483576 350.8345969508012) rotate(-59.03157104785928)"/></g><g class="relationship"><path fill="#4356C0" stroke="none" d="M 0 1.5 L 44.96212563623217 1.5 L 44.96212563623217 -1.5 L 0 -1.5 Z M 104.96212563623217 1.5 L 149.92425127246435 1.5 L 149.92425127246435 4.5 L 158.92425127246435 0 L 149.92425127246435 -4.5 L 149.92425127246435 -1.5 L 104.96212563623217 -1.5 Z" transform="translate(669.9616813417039 352.36186293490965) rotate(-143.6013000233115)"/><text text-anchor="middle" font-size="9px" fill="#000000" x="609.6241220693103" y="311.3792908313021" transform="rotate(36.398699976688505 609.6241220693103 307.8792908313021)">GENERATES</text><rect class="overlay" fill="yellow" x="0" y="-10" height="20" opacity="0" width="158.92425127246435" transform="translate(669.9616813417039 352.36186293490965) rotate(-143.6013000233115)"/></g><g class="relationship"><path fill="#4356C0" stroke="none" d="M 0 1.5 L 2.0941477717764627 1.5 L 2.0941477717764627 -1.5 L 0 -1.5 Z M 62.09414777177646 1.5 L 64.18829554355293 1.5 L 64.18829554355293 4.5 L 73.18829554355293 0 L 64.18829554355293 -4.5 L 64.18829554355293 -1.5 L 62.09414777177646 -1.5 Z" transform="translate(689.098164092029 344.4620099409601) rotate(-81.26197130702775)"/><text text-anchor="middle" font-size="9px" fill="#000000" x="693.9738067555054" y="316.2403701691149" transform="rotate(-81.26197130702775 693.9738067555054 312.7403701691149)">GENERATES</text><rect class="overlay" fill="yellow" x="0" y="-10" height="20" opacity="0" width="73.18829554355293" transform="translate(689.098164092029 344.4620099409601) rotate(-81.26197130702775)"/></g><g class="relationship"><path fill="#4356C0" stroke="none" d="M 0 1.5 L 21.817750194802954 1.5 L 21.817750194802954 -1.5 L 0 -1.5 Z M 53.817750194802954 1.5 L 75.63550038960591 1.5 L 75.63550038960591 4.5 L 84.63550038960591 0 L 75.63550038960591 -4.5 L 75.63550038960591 -1.5 L 53.817750194802954 -1.5 Z" transform="translate(294.2452605848053 376.7663722640857) rotate(159.96346038567077)"/><text text-anchor="middle" font-size="9px" fill="#000000" x="258.7164557786802" y="393.223465257685" transform="rotate(339.96346038567077 258.7164557786802 389.723465257685)">LINKS</text><rect class="overlay" fill="yellow" x="0" y="-10" height="20" opacity="0" width="84.63550038960591" transform="translate(294.2452605848053 376.7663722640857) rotate(159.96346038567077)"/></g><g class="relationship"><path fill="#4356C0" stroke="none" d="M 0 1.5 L 22.452004390175624 1.5 L 22.452004390175624 -1.5 L 0 -1.5 Z M 54.452004390175624 1.5 L 76.90400878035125 1.5 L 76.90400878035125 4.5 L 85.90400878035125 0 L 76.90400878035125 -4.5 L 76.90400878035125 -1.5 L 54.452004390175624 -1.5 Z" transform="translate(472.3347004835305 363.45810362941984) rotate(-13.077901264921625)"/><text text-anchor="middle" font-size="9px" fill="#000000" x="509.7893872814616" y="358.25735202447373" transform="rotate(-13.077901264921625 509.7893872814616 354.75735202447373)">LINKS</text><rect class="overlay" fill="yellow" x="0" y="-10" height="20" opacity="0" width="85.90400878035125" transform="translate(472.3347004835305 363.45810362941984) rotate(-13.077901264921625)"/></g><g class="relationship"><path fill="#4356C0" stroke="none" d="M 0 1.5 L 12.81062771119801 1.5 L 12.81062771119801 -1.5 L 0 -1.5 Z M 44.81062771119801 1.5 L 57.62125542239602 1.5 L 57.62125542239602 4.5 L 66.62125542239602 0 L 57.62125542239602 -4.5 L 57.62125542239602 -1.5 L 44.81062771119801 -1.5 Z" transform="translate(701.5464291619707 376.88551210871276) rotate(39.25566079046418)"/><text text-anchor="middle" font-size="9px" fill="#000000" x="723.8553662449788" y="398.616353980103" transform="rotate(39.25566079046418 723.8553662449788 395.116353980103)">LINKS</text><rect class="overlay" fill="yellow" x="0" y="-10" height="20" opacity="0" width="66.62125542239602" transform="translate(701.5464291619707 376.88551210871276) rotate(39.25566079046418)"/></g><g class="relationship"><path fill="#4356C0" stroke="none" d="M 0 1.5 L 10.137769734960685 1.5 L 10.137769734960685 -1.5 L 0 -1.5 Z M 34.137769734960685 1.5 L 44.27553946992137 1.5 L 44.27553946992137 4.5 L 53.27553946992137 0 L 44.27553946992137 -4.5 L 44.27553946992137 -1.5 L 34.137769734960685 -1.5 Z" transform="translate(875.3785419905013 462.94521793152137) rotate(-91.0822489702593)"/><text text-anchor="middle" font-size="9px" fill="#000000" x="874.9604107765904" y="444.31139731405693" transform="rotate(88.9177510297407 874.9604107765904 440.81139731405693)">HAS</text><rect class="overlay" fill="yellow" x="0" y="-10" height="20" opacity="0" width="53.27553946992137" transform="translate(875.3785419905013 462.94521793152137) rotate(-91.0822489702593)"/></g><g class="relationship"><path fill="#4356C0" stroke="none" d="M 0 1.5 L 0.7103343114027538 1.5 L 0.7103343114027538 -1.5 L 0 -1.5 Z M 54.710334311402754 1.5 L 55.42066862280551 1.5 L 55.42066862280551 4.5 L 64.42066862280551 0 L 55.42066862280551 -4.5 L 55.42066862280551 -1.5 L 54.710334311402754 -1.5 Z" transform="translate(891.8418280756601 380.6564444641384) rotate(-26.828101960213043)"/><text text-anchor="middle" font-size="9px" fill="#000000" x="916.5695485939893" y="371.6503473264578" transform="rotate(-26.828101960213043 916.5695485939893 368.1503473264578)">IS_MADE…</text><rect class="overlay" fill="yellow" x="0" y="-10" height="20" opacity="0" width="64.42066862280551" transform="translate(891.8418280756601 380.6564444641384) rotate(-26.828101960213043)"/></g><g class="relationship"><path fill="#4356C0" stroke="none" d="M 0 1.5 L 14.226880426584685 1.5 L 14.226880426584685 -1.5 L 0 -1.5 Z M 46.226880426584685 1.5 L 60.45376085316937 1.5 L 60.45376085316937 4.5 L 69.45376085316937 0 L 60.45376085316937 -4.5 L 60.45376085316937 -1.5 L 46.226880426584685 -1.5 Z" transform="translate(892.9049716255022 396.19392889677505) rotate(18.99944205963297)"/><text text-anchor="middle" font-size="9px" fill="#000000" x="921.4851443796616" y="409.5345602619596" transform="rotate(18.99944205963297 921.4851443796616 406.0345602619596)">LINKS</text><rect class="overlay" fill="yellow" x="0" y="-10" height="20" opacity="0" width="69.45376085316937" transform="translate(892.9049716255022 396.19392889677505) rotate(18.99944205963297)"/></g><g class="relationship"><path fill="#4356C0" stroke="none" d="M 0 1.5 L 143.9971933640221 1.5 L 143.9971933640221 -1.5 L 0 -1.5 Z M 193.9971933640221 1.5 L 337.9943867280442 1.5 L 337.9943867280442 4.5 L 346.9943867280442 0 L 337.9943867280442 -4.5 L 337.9943867280442 -1.5 L 193.9971933640221 -1.5 Z" transform="translate(508.82496217957913 489.7443248414091) rotate(-1.0621058132291326)"/><text text-anchor="middle" font-size="9px" fill="#000000" x="677.7931201734475" y="490.11176214039085" transform="rotate(-1.0621058132291326 677.7931201734475 486.61176214039085)">INCLUDES</text><rect class="overlay" fill="yellow" x="0" y="-10" height="20" opacity="0" width="346.9943867280442" transform="translate(508.82496217957913 489.7443248414091) rotate(-1.0621058132291326)"/></g></g><g class="layer nodes"><g class="node" transform="translate(703.2550388194629,252.35532546983006)"><circle class="outline" cx="0" cy="0" r="20" fill="#F25A29" stroke="#DC4717" stroke-width="2px"/><text text-anchor="middle" font-weight="bold" stroke="#F25A29" stroke-width="0" y="5" font-size="12px" fill="#FFFFFF">PDF</text></g><g class="node" transform="translate(525.944252209426,246.18810064148187)"><circle class="outline" cx="0" cy="0" r="20" fill="#F25A29" stroke="#DC4717" stroke-width="2px"/><text text-anchor="middle" font-weight="bold" stroke="#F25A29" stroke-width="0" y="5" font-size="12px" fill="#FFFFFF">HTML</text></g><g class="node" transform="translate(597.8982968550197,42.64026254323164)"><circle class="outline" cx="0" cy="0" r="20" fill="#AD62CE" stroke="#9453B1" stroke-width="2px"/><text text-anchor="middle" font-weight="bold" stroke="#AD62CE" stroke-width="0" y="0" font-size="12px" fill="#FFFFFF">Anathem</text><text text-anchor="middle" font-weight="bold" stroke="#AD62CE" stroke-width="0" y="10" font-size="12px" fill="#FFFFFF">(Book)</text></g><g class="node" transform="translate(536.7503615052235,134.4381280322866)"><circle class="outline" cx="0" cy="0" r="20" fill="#30B6AF" stroke="#46A39E" stroke-width="2px"/><text text-anchor="middle" font-weight="bold" stroke="#30B6AF" stroke-width="0" y="5" font-size="12px" fill="#FFFFFF">ver.1</text></g><g class="node" transform="translate(672.4371089239118,134.1380176578914)"><circle class="outline" cx="0" cy="0" r="20" fill="#30B6AF" stroke="#46A39E" stroke-width="2px"/><text text-anchor="middle" font-weight="bold" stroke="#30B6AF" stroke-width="0" y="5" font-size="12px" fill="#FFFFFF">ver.2</text></g><g class="node" transform="translate(398.52307433516637,96.09992479290202)"><circle class="outline" cx="0" cy="0" r="20" fill="#FCC940" stroke="#F3BA25" stroke-width="2px"/><text text-anchor="middle" font-weight="bold" stroke="#FCC940" stroke-width="0" y="5" font-size="12px" fill="#000000">anathem_draft.doc</text></g><g class="node" transform="translate(853.1104950898367,111.44411650565448)"><circle class="outline" cx="0" cy="0" r="20" fill="#FCC940" stroke="#F3BA25" stroke-width="2px"/><text text-anchor="middle" font-weight="bold" stroke="#FCC940" stroke-width="0" y="5" font-size="12px" fill="#000000">anathem_final.doc</text></g><g class="node" transform="translate(393.6213678635132,180.3421163911446)"><circle class="outline" cx="0" cy="0" r="20" fill="#4356C0" stroke="#3445A2" stroke-width="2px"/><text text-anchor="middle" font-weight="bold" stroke="#4356C0" stroke-width="0" y="0" font-size="12px" fill="#FFFFFF">Anathem</text><text text-anchor="middle" font-weight="bold" stroke="#4356C0" stroke-width="0" y="10" font-size="12px" fill="#FFFFFF">(DRAFT)</text></g><g class="node" transform="translate(835.202583504613,194.8441539769948)"><circle class="outline" cx="0" cy="0" r="20" fill="#4356C0" stroke="#3445A2" stroke-width="2px"/><text text-anchor="middle" font-weight="bold" stroke="#4356C0" stroke-width="0" y="5" font-size="12px" fill="#FFFFFF">Anathem</text></g><g class="node" transform="translate(488.82839837512483,490.11504847754316)"><circle class="outline" cx="0" cy="0" r="20" fill="#AD62CE" stroke="#9453B1" stroke-width="2px"/><text text-anchor="middle" font-weight="bold" stroke="#AD62CE" stroke-width="0" y="-5" font-size="12px" fill="#FFFFFF">GitHub</text><text text-anchor="middle" font-weight="bold" stroke="#AD62CE" stroke-width="0" y="5" font-size="12px" fill="#FFFFFF">Project's</text><text text-anchor="middle" font-weight="bold" stroke="#AD62CE" stroke-width="0" y="15" font-size="12px" fill="#FFFFFF">README</text></g><g class="node" transform="translate(313.0347468039023,369.913985262291)"><circle class="outline" cx="0" cy="0" r="20" fill="#30B6AF" stroke="#46A39E" stroke-width="2px"/><text text-anchor="middle" font-weight="bold" stroke="#30B6AF" stroke-width="0" y="5" font-size="12px" fill="#FFFFFF">ver.1</text></g><g class="node" transform="translate(452.85343421825326,367.9836162745651)"><circle class="outline" cx="0" cy="0" r="20" fill="#30B6AF" stroke="#46A39E" stroke-width="2px"/><text text-anchor="middle" font-weight="bold" stroke="#30B6AF" stroke-width="0" y="5" font-size="12px" fill="#FFFFFF">ver.2</text></g><g class="node" transform="translate(686.0598265744559,364.22987540815984)"><circle class="outline" cx="0" cy="0" r="20" fill="#30B6AF" stroke="#46A39E" stroke-width="2px"/><text text-anchor="middle" font-weight="bold" stroke="#30B6AF" stroke-width="0" y="5" font-size="12px" fill="#FFFFFF">ver.3</text></g><g class="node" transform="translate(198.4923084218932,334.23648709144595)"><circle class="outline" cx="0" cy="0" r="20" fill="#FCC940" stroke="#F3BA25" stroke-width="2px"/><text text-anchor="middle" font-weight="bold" stroke="#FCC940" stroke-width="0" y="5" font-size="12px" fill="#000000">README.adoc</text></g><g class="node" transform="translate(566.0801692398766,394.98098006232584)"><circle class="outline" cx="0" cy="0" r="20" fill="#FCC940" stroke="#F3BA25" stroke-width="2px"/><text text-anchor="middle" font-weight="bold" stroke="#FCC940" stroke-width="0" y="5" font-size="12px" fill="#000000">README.adoc</text></g><g class="node" transform="translate(788.804529238863,363.2439546762348)"><circle class="outline" cx="0" cy="0" r="20" fill="#FCC940" stroke="#F3BA25" stroke-width="2px"/><text text-anchor="middle" font-weight="bold" stroke="#FCC940" stroke-width="0" y="5" font-size="12px" fill="#000000">README.adoc</text></g><g class="node" transform="translate(195.94289595486447,412.61651940388657)"><circle class="outline" cx="0" cy="0" r="20" fill="#4356C0" stroke="#3445A2" stroke-width="2px"/><text text-anchor="middle" font-weight="bold" stroke="#4356C0" stroke-width="0" y="0" font-size="12px" fill="#FFFFFF">Reference</text><text text-anchor="middle" font-weight="bold" stroke="#4356C0" stroke-width="0" y="10" font-size="12px" fill="#FFFFFF">documentation</text></g><g class="node" transform="translate(575.4919101640447,339.4946070840669)"><circle class="outline" cx="0" cy="0" r="20" fill="#4356C0" stroke="#3445A2" stroke-width="2px"/><text text-anchor="middle" font-weight="bold" stroke="#4356C0" stroke-width="0" y="0" font-size="12px" fill="#FFFFFF">Reference</text><text text-anchor="middle" font-weight="bold" stroke="#4356C0" stroke-width="0" y="10" font-size="12px" fill="#FFFFFF">documentation</text></g><g class="node" transform="translate(768.6198770798833,431.6978690672949)"><circle class="outline" cx="0" cy="0" r="20" fill="#4356C0" stroke="#3445A2" stroke-width="2px"/><text text-anchor="middle" font-weight="bold" stroke="#4356C0" stroke-width="0" y="-15" font-size="12px" fill="#FFFFFF">Reference</text><text text-anchor="middle" font-weight="bold" stroke="#4356C0" stroke-width="0" y="-5" font-size="12px" fill="#FFFFFF">documentation</text><text text-anchor="middle" font-weight="bold" stroke="#4356C0" stroke-width="0" y="5" font-size="12px" fill="#FFFFFF">&amp;</text><text text-anchor="middle" font-weight="bold" stroke="#4356C0" stroke-width="0" y="15" font-size="12px" fill="#FFFFFF">Cont</text><text text-anchor="middle" font-weight="bold" stroke="#4356C0" stroke-width="0" y="25" font-size="12px" fill="#FFFFFF">...</text></g><g class="node" transform="translate(875.7562956837746,482.9416501669782)"><circle class="outline" cx="0" cy="0" r="20" fill="#AD62CE" stroke="#9453B1" stroke-width="2px"/><text text-anchor="middle" font-weight="bold" stroke="#AD62CE" stroke-width="0" y="0" font-size="12px" fill="#FFFFFF">Contributors'</text><text text-anchor="middle" font-weight="bold" stroke="#AD62CE" stroke-width="0" y="10" font-size="12px" fill="#FFFFFF">guide</text></g><g class="node" transform="translate(873.9945367074331,389.68274995518)"><circle class="outline" cx="0" cy="0" r="20" fill="#30B6AF" stroke="#46A39E" stroke-width="2px"/><text text-anchor="middle" font-weight="bold" stroke="#30B6AF" stroke-width="0" y="5" font-size="12px" fill="#FFFFFF">ver.1</text></g><g class="node" transform="translate(967.1758415962479,342.5561072267668)"><circle class="outline" cx="0" cy="0" r="20" fill="#FCC940" stroke="#F3BA25" stroke-width="2px"/><text text-anchor="middle" font-weight="bold" stroke="#FCC940" stroke-width="0" y="5" font-size="12px" fill="#000000">contributors.adoc</text></g><g class="node" transform="translate(977.4854477650213,425.31640109245706)"><circle class="outline" cx="0" cy="0" r="20" fill="#4356C0" stroke="#3445A2" stroke-width="2px"/><text text-anchor="middle" font-weight="bold" stroke="#4356C0" stroke-width="0" y="0" font-size="12px" fill="#FFFFFF">Contributors'</text><text text-anchor="middle" font-weight="bold" stroke="#4356C0" stroke-width="0" y="10" font-size="12px" fill="#FFFFFF">guide</text></g></g></svg>